<?xml version="1.0" encoding="UTF-8"?>
<svg id="Layer_1" data-name="Layer 1" xmlns="http://www.w3.org/2000/svg" viewBox="0 0 280 280">
  <defs>
    <style>
      .cls-1 {
        fill: #ec3b95;
      }

      .cls-2 {
        fill: #40bda5;
      }

      .cls-3 {
        fill: #ffcf41;
      }
    </style>
  </defs>
  <polygon class="cls-2" points="183.91 280.39 28.19 280.39 0 202.93 155.71 202.93 183.91 280.39"/>
  <polygon class="cls-2" points="218.21 280.39 148.17 280.39 124.99 216.72 195.04 216.72 218.21 280.39"/>
  <polygon class="cls-2" points="247.79 191.64 165.95 191.64 96.05 -.39 177.9 -.39 247.79 191.64"/>
  <polygon class="cls-1" points="280 280.39 198.16 280.39 174.98 216.72 256.82 216.72 280 280.39"/>
  <polygon class="cls-3" points="280 280.39 266.06 280.39 242.88 216.72 256.82 216.72 280 280.39"/>
  <path class="cls-1" d="M131.8,151.03l-16.43,20.25-48.18,.06v20.31h-16.15V110.41l64.18,.03,16.57,20.27s0,22.3,0,20.31Zm-22.36,0l6.21-9.99-6.21-10.32h-42.24v20.31h42.24Z"/>
  <path class="cls-1" d="M91.87,17.48v20.24h-.02v60.71h-16.22V45.61l-15.98,19.94h-17.1l-15.56-19.41v52.29H10.77V37.72h-.01V17.48H26.99v.04l16.2,20.2,7.91,9.87,7.91-9.87,16.23-20.24,.39-.49v.49h16.24Z"/>
</svg>